<?xml version="1.0" encoding="utf-8"?>
<!-- Generator: Adobe Illustrator 26.5.0, SVG Export Plug-In . SVG Version: 6.00 Build 0)  -->
<svg version="1.1" id="Capa_1" xmlns="http://www.w3.org/2000/svg" xmlns:xlink="http://www.w3.org/1999/xlink" x="0px" y="0px"
	 viewBox="0 0 222 222" style="enable-background:new 0 0 222 222;" xml:space="preserve">
<style type="text/css">
	.st0{fill:#DCE8DA;}
	.st1{opacity:0.25;}
	.st2{fill:#FFFFFF;}
</style>
<rect class="st0" width="222" height="222"/>
<g class="st1">
	<path class="st2" d="M55.5,203.5H37V222h18.5V203.5z"/>
	<path class="st2" d="M92.5,203.5H74V222h18.5V203.5z"/>
	<path class="st2" d="M129.5,203.5H111V222h18.5V203.5z"/>
	<path class="st2" d="M166.5,203.5H148V222h18.5V203.5z"/>
	<path class="st2" d="M203.5,203.5H185V222h18.5V203.5z"/>
	<path class="st2" d="M74,185H55.5v18.5H74V185z"/>
	<path class="st2" d="M111,185H92.5v18.5H111V185z"/>
	<path class="st2" d="M148,185h-18.5v18.5H148V185z"/>
	<path class="st2" d="M185,185h-18.5v18.5H185V185z"/>
	<path class="st2" d="M222,185h-18.5v18.5H222V185z"/>
	<path class="st2" d="M55.5,166.5H37V185h18.5V166.5z"/>
	<path class="st2" d="M92.5,166.5H74V185h18.5V166.5z"/>
	<path class="st2" d="M129.5,166.5H111V185h18.5V166.5z"/>
	<path class="st2" d="M166.5,166.5H148V185h18.5V166.5z"/>
	<path class="st2" d="M203.5,166.5H185V185h18.5V166.5z"/>
	<path class="st2" d="M74,148H55.5v18.5H74V148z"/>
	<path class="st2" d="M111,148H92.5v18.5H111V148z"/>
	<path class="st2" d="M148,148h-18.5v18.5H148V148z"/>
	<path class="st2" d="M185,148h-18.5v18.5H185V148z"/>
	<path class="st2" d="M222,148h-18.5v18.5H222V148z"/>
	<path class="st2" d="M55.5,129.5H37V148h18.5V129.5z"/>
	<path class="st2" d="M92.5,129.5H74V148h18.5V129.5z"/>
	<path class="st2" d="M129.5,129.5H111V148h18.5V129.5z"/>
	<path class="st2" d="M166.5,129.5H148V148h18.5V129.5z"/>
	<path class="st2" d="M203.5,129.5H185V148h18.5V129.5z"/>
	<path class="st2" d="M74,111H55.5v18.5H74V111z"/>
	<path class="st2" d="M111,111H92.5v18.5H111V111z"/>
	<path class="st2" d="M148,111h-18.5v18.5H148V111z"/>
	<path class="st2" d="M185,111h-18.5v18.5H185V111z"/>
	<path class="st2" d="M222,111h-18.5v18.5H222V111z"/>
	<path class="st2" d="M55.5,92.5H37V111h18.5V92.5z"/>
	<path class="st2" d="M92.5,92.5H74V111h18.5V92.5z"/>
	<path class="st2" d="M129.5,92.5H111V111h18.5V92.5z"/>
	<path class="st2" d="M166.5,92.5H148V111h18.5V92.5z"/>
	<path class="st2" d="M203.5,92.5H185V111h18.5V92.5z"/>
	<path class="st2" d="M74,74H55.5v18.5H74V74z"/>
	<path class="st2" d="M111,74H92.5v18.5H111V74z"/>
	<path class="st2" d="M148,74h-18.5v18.5H148V74z"/>
	<path class="st2" d="M185,74h-18.5v18.5H185V74z"/>
	<path class="st2" d="M222,74h-18.5v18.5H222V74z"/>
	<path class="st2" d="M55.5,55.5H37V74h18.5V55.5z"/>
	<path class="st2" d="M92.5,55.5H74V74h18.5V55.5z"/>
	<path class="st2" d="M129.5,55.5H111V74h18.5V55.5z"/>
	<path class="st2" d="M166.5,55.5H148V74h18.5V55.5z"/>
	<path class="st2" d="M203.5,55.5H185V74h18.5V55.5z"/>
	<path class="st2" d="M74,37H55.5v18.5H74V37z"/>
	<path class="st2" d="M111,37H92.5v18.5H111V37z"/>
	<path class="st2" d="M148,37h-18.5v18.5H148V37z"/>
	<path class="st2" d="M185,37h-18.5v18.5H185V37z"/>
	<path class="st2" d="M222,37h-18.5v18.5H222V37z"/>
	<path class="st2" d="M55.5,18.5H37V37h18.5V18.5z"/>
	<path class="st2" d="M92.5,18.5H74V37h18.5V18.5z"/>
	<path class="st2" d="M129.5,18.5H111V37h18.5V18.5z"/>
	<path class="st2" d="M166.5,18.5H148V37h18.5V18.5z"/>
	<path class="st2" d="M203.5,18.5H185V37h18.5V18.5z"/>
	<path class="st2" d="M74,0H55.5v18.5H74V0z"/>
	<path class="st2" d="M111,0H92.5v18.5H111V0z"/>
	<path class="st2" d="M148,0h-18.5v18.5H148V0z"/>
	<path class="st2" d="M185,0h-18.5v18.5H185V0z"/>
	<path class="st2" d="M222,0h-18.5v18.5H222V0z"/>
	<path class="st2" d="M18.5,203.5H0V222h18.5V203.5z"/>
	<path class="st2" d="M37,185H18.5v18.5H37V185z"/>
	<path class="st2" d="M18.5,166.5H0V185h18.5V166.5z"/>
	<path class="st2" d="M37,148H18.5v18.5H37V148z"/>
	<path class="st2" d="M18.5,129.5H0V148h18.5V129.5z"/>
	<path class="st2" d="M37,111H18.5v18.5H37V111z"/>
	<path class="st2" d="M18.5,92.5H0V111h18.5V92.5z"/>
	<path class="st2" d="M37,74H18.5v18.5H37V74z"/>
	<path class="st2" d="M18.5,55.5H0V74h18.5V55.5z"/>
	<path class="st2" d="M37,37H18.5v18.5H37V37z"/>
	<path class="st2" d="M18.5,18.5H0V37h18.5V18.5z"/>
	<path class="st2" d="M37,0H18.5v18.5H37V0z"/>
</g>
</svg>
