<svg width="24" height="30" viewBox="0 0 24 30" fill="none" xmlns="http://www.w3.org/2000/svg">
<path d="M5.62496 29.1668C4.25551 29.1668 3.08676 28.6828 2.11871 27.7147C1.15065 26.7467 0.666626 25.5779 0.666626 24.2085V5.79183C0.666626 4.42239 1.15065 3.25364 2.11871 2.28558C3.08676 1.31752 4.25551 0.833496 5.62496 0.833496H23.3333V22.0835C22.743 22.0835 22.2413 22.2901 21.8281 22.7033C21.4149 23.1165 21.2083 23.6182 21.2083 24.2085C21.2083 24.7988 21.4149 25.3005 21.8281 25.7137C22.2413 26.1269 22.743 26.3335 23.3333 26.3335V29.1668H5.62496ZM6.33329 19.2502H9.16663V3.66683H6.33329V19.2502ZM5.62496 26.3335H18.8354C18.6937 26.0029 18.5816 25.6665 18.4989 25.3241C18.4163 24.9818 18.375 24.6099 18.375 24.2085C18.375 23.8307 18.4104 23.4647 18.4812 23.1106C18.552 22.7564 18.6701 22.4141 18.8354 22.0835H5.62496C5.01107 22.0835 4.50343 22.2901 4.10204 22.7033C3.70065 23.1165 3.49996 23.6182 3.49996 24.2085C3.49996 24.8224 3.70065 25.33 4.10204 25.7314C4.50343 26.1328 5.01107 26.3335 5.62496 26.3335Z" fill="#DCE8DA"/>
</svg>
