<svg width="36" height="36" viewBox="0 0 36 36" fill="none" xmlns="http://www.w3.org/2000/svg">
<path d="M32.5667 35.25L20.4917 23.175C19.5333 23.9417 18.4312 24.5486 17.1854 24.9958C15.9396 25.4431 14.6139 25.6667 13.2083 25.6667C9.72639 25.6667 6.77951 24.4608 4.36771 22.049C1.9559 19.6372 0.75 16.6903 0.75 13.2083C0.75 9.72639 1.9559 6.77951 4.36771 4.36771C6.77951 1.9559 9.72639 0.75 13.2083 0.75C16.6903 0.75 19.6372 1.9559 22.049 4.36771C24.4608 6.77951 25.6667 9.72639 25.6667 13.2083C25.6667 14.6139 25.4431 15.9396 24.9958 17.1854C24.5486 18.4312 23.9417 19.5333 23.175 20.4917L35.25 32.5667L32.5667 35.25ZM13.2083 21.8333C15.6042 21.8333 17.6406 20.9948 19.3177 19.3177C20.9948 17.6406 21.8333 15.6042 21.8333 13.2083C21.8333 10.8125 20.9948 8.77604 19.3177 7.09896C17.6406 5.42188 15.6042 4.58333 13.2083 4.58333C10.8125 4.58333 8.77604 5.42188 7.09896 7.09896C5.42188 8.77604 4.58333 10.8125 4.58333 13.2083C4.58333 15.6042 5.42188 17.6406 7.09896 19.3177C8.77604 20.9948 10.8125 21.8333 13.2083 21.8333Z" fill="#075B39"/>
</svg>
