<svg width="24" height="30" viewBox="0 0 24 30" fill="none" xmlns="http://www.w3.org/2000/svg">
<path d="M12,13.8c-1.8,0-3.3-0.6-4.6-1.9c-1.3-1.3-1.9-2.8-1.9-4.6c0-1.8,0.6-3.3,1.9-4.6c1.3-1.3,2.8-1.9,4.6-1.9
	c1.8,0,3.3,0.6,4.6,1.9c1.3,1.3,1.9,2.8,1.9,4.6c0,1.8-0.6,3.3-1.9,4.6C15.3,13.2,13.8,13.8,12,13.8z M0.7,29.2v-7.8
	c0-0.8,0.2-1.5,0.6-2.2c0.4-0.7,1-1.2,1.6-1.5c1.5-0.7,3-1.3,4.5-1.6s3-0.5,4.6-0.5c1.6,0,3.1,0.2,4.6,0.5c1.5,0.4,3,0.9,4.5,1.6
	c0.7,0.4,1.2,0.9,1.6,1.5c0.4,0.7,0.6,1.4,0.6,2.2v7.8H0.7z"/>
</svg>
