<svg width="139" height="139" viewBox="0 0 139 139" fill="none" xmlns="http://www.w3.org/2000/svg">
<g clip-path="url(#clip0_28_46641)">
<path d="M138.52 0H0V138.52H138.52V0Z" fill="#075B39"/>
<path d="M94.4798 41.7501C94.3398 42.7501 94.3398 44.1801 94.3398 46.1801C94.3398 50.3201 95.1998 53.8901 90.9098 54.1801C87.6198 54.3201 84.3398 54.3201 80.9098 54.1801C77.0498 53.8901 78.0498 54.1801 77.6198 44.1801C77.4798 39.4701 74.0498 34.7501 69.0498 35.4701C64.0498 36.1901 62.1898 41.6101 62.1898 48.4701V88.4701C62.1898 91.4701 62.4798 94.1801 63.3298 96.6101C65.4698 103.61 73.1898 103.9 76.6198 97.6101C76.7598 97.1801 76.9098 96.7501 77.0498 96.6101C78.0498 91.0401 78.0498 85.7501 76.9098 80.6101C76.6198 78.9001 75.3398 77.9001 73.3398 77.6101C71.0498 77.3201 69.9098 75.9001 69.9098 73.3201C69.9098 68.3201 69.9098 65.3201 70.0498 64.4601C70.1898 62.3201 71.3398 61.1701 73.6198 61.0301C74.9098 60.8901 78.0498 60.8901 83.0498 60.8901C86.9098 60.8901 89.4798 60.8901 90.7598 61.0301C92.0498 61.0301 92.8998 61.4601 93.3298 61.8901C94.4698 63.0301 94.4698 64.6001 94.4698 68.3201C94.4698 99.1801 97.1798 105.32 85.7598 114.61C74.4698 123.9 55.0398 121.32 47.6098 104.18C46.8998 102.47 46.6098 99.8901 46.6098 96.4701V74.4701L40.8998 71.3301C40.1898 70.9001 39.7598 70.1901 39.7598 69.3301C39.7598 68.3301 40.1898 67.7601 40.8998 67.3301L46.6098 64.0401C46.6098 53.0401 46.6098 45.4701 46.4698 41.4701C46.4698 30.7501 55.0398 18.4701 68.0398 18.6101H73.1798C79.7498 18.7501 85.3198 21.6101 89.7498 27.3201C93.1798 31.8901 94.7498 36.6101 94.4598 41.7501H94.4798Z" fill="#47C234"/>
</g>
<defs>
<clipPath id="clip0_28_46641">
<rect width="138.52" height="138.52" fill="white"/>
</clipPath>
</defs>
</svg>
